<svg width="192" height="41" viewBox="0 0 192 41" fill="none" xmlns="http://www.w3.org/2000/svg">
<path d="M76.5 21C76.5 10.2304 85.2304 1.5 96 1.5C106.77 1.5 115.5 10.2304 115.5 21C115.5 31.7696 106.77 40.5 96 40.5C85.2304 40.5 76.5 31.7696 76.5 21Z" stroke="#7E828F" stroke-opacity="0.3"/>
<g clip-path="url(#clip0_2_1409)">
<g opacity="0.5">
<path opacity="0.5" d="M105 14.7824C104.325 15.085 103.61 15.2854 102.879 15.3775C103.26 15.1406 103.597 14.8367 103.875 14.4797C104.156 14.1195 104.37 13.7098 104.508 13.2707C103.781 13.7156 102.984 14.0268 102.152 14.1902C101.814 13.8189 101.406 13.5213 100.953 13.3152C100.483 13.1017 99.9737 12.994 99.4595 12.9992C98.9745 12.9976 98.494 13.0948 98.0458 13.2852C97.5977 13.4755 97.1908 13.7551 96.8488 14.1079C96.5049 14.4588 96.2323 14.8762 96.0468 15.3359C95.8612 15.7956 95.7665 16.2885 95.768 16.7861C95.7685 17.0772 95.7994 17.3674 95.8602 17.6517C94.3711 17.5714 92.9153 17.1687 91.5887 16.4701C90.3012 15.7886 89.1655 14.8406 88.2532 13.686C87.9347 14.2703 87.7654 14.9276 87.7607 15.597C87.7529 16.2296 87.9034 16.8537 88.1979 17.4095C88.4854 17.9511 88.8968 18.4131 89.3967 18.7557C88.8089 18.7383 88.2339 18.576 87.7202 18.2827V18.3186C87.7227 19.1994 88.0217 20.0523 88.5667 20.7329C89.1068 21.4035 89.856 21.8623 90.6877 22.0317C90.3691 22.1296 90.0383 22.1796 89.7056 22.1803C89.4751 22.1808 89.2452 22.1567 89.0195 22.1084C89.2488 22.8538 89.7004 23.5067 90.3106 23.9749C90.9338 24.4526 91.6861 24.7204 92.4639 24.7411C91.8235 25.2484 91.1072 25.6459 90.3428 25.918C89.5485 26.2033 88.7139 26.3525 87.8723 26.3598C87.5804 26.3592 87.2888 26.3409 86.999 26.3049C87.8251 26.8487 88.7217 27.2706 89.6623 27.5584C90.6348 27.8555 91.6446 28.0043 92.6594 28.0002C96.0702 27.8683 98.672 26.6991 100.465 24.4923C102.187 22.4776 103.147 19.896 103.171 17.2165C103.171 17.0601 103.165 16.8977 103.154 16.7293C103.873 16.1959 104.497 15.5385 104.998 14.7862L105 14.7824Z" fill="#0C2050"/>
</g>
</g>
<path d="M12.5 21C12.5 10.2304 21.2304 1.5 32 1.5C42.7696 1.5 51.5 10.2304 51.5 21C51.5 31.7696 42.7696 40.5 32 40.5C21.2304 40.5 12.5 31.7696 12.5 21Z" stroke="#7E828F" stroke-opacity="0.3"/>
<g clip-path="url(#clip1_2_1409)">
<g opacity="0.5">
<path opacity="0.5" d="M34.9895 21.0002C34.992 20.6064 34.9157 20.2161 34.7651 19.8523C34.6144 19.4884 34.3924 19.1584 34.1122 18.8818C33.8367 18.6035 33.5086 18.3828 33.1469 18.2327C32.7853 18.0826 32.3974 18.006 32.0058 18.0074C31.6124 18.0043 31.2223 18.08 30.8586 18.23C30.4948 18.3799 30.1648 18.6012 29.8878 18.8807C29.6084 19.1577 29.3872 19.4879 29.2372 19.8517C29.0873 20.2155 29.0116 20.6057 29.0148 20.9992C29.01 21.3921 29.0837 21.7819 29.2317 22.1459C29.3796 22.5099 29.5988 22.8406 29.8763 23.1187C30.1545 23.3982 30.486 23.619 30.851 23.7681C31.2161 23.9172 31.6073 23.9915 32.0016 23.9867C32.3931 23.9883 32.7809 23.9119 33.1426 23.7619C33.5042 23.612 33.8324 23.3915 34.108 23.1134C34.3882 22.8368 34.6102 22.5068 34.7608 22.143C34.9115 21.7791 34.9878 21.3888 34.9853 20.995L34.9895 21.0002ZM36.6156 21.0002C36.6129 22.2252 36.1256 23.3992 35.2601 24.2659C34.3947 25.1289 33.2236 25.615 32.0016 25.6185C30.7769 25.6158 29.6031 25.1284 28.7367 24.2627C27.8712 23.3961 27.3839 22.222 27.3813 20.9971C27.3839 19.7721 27.8712 18.5981 28.7367 17.7314C29.603 16.8654 30.7768 16.3776 32.0016 16.3746C33.2262 16.3773 34.4 16.8647 35.2665 17.7304C36.1308 18.5975 36.6169 19.7715 36.6188 20.996L36.6156 21.0002ZM37.8794 16.2019C37.8767 16.4877 37.7635 16.7614 37.5635 16.9656C37.4635 17.0653 37.3442 17.1434 37.2128 17.1952C37.0815 17.2471 36.941 17.2714 36.7999 17.2669C36.6588 17.2714 36.5183 17.2471 36.387 17.1952C36.2556 17.1434 36.1363 17.0653 36.0363 16.9656C35.9367 16.8656 35.8585 16.7462 35.8067 16.6149C35.7549 16.4835 35.7306 16.343 35.7351 16.2019C35.7306 16.0607 35.7549 15.9202 35.8067 15.7888C35.8585 15.6575 35.9367 15.5381 36.0363 15.4381C36.1363 15.3384 36.2556 15.2603 36.387 15.2085C36.5183 15.1566 36.6588 15.1323 36.7999 15.1368C36.941 15.1323 37.0815 15.1566 37.2128 15.2085C37.3442 15.2603 37.4635 15.3384 37.5635 15.4381C37.7632 15.642 37.8765 15.9153 37.8794 16.2008V16.2019ZM32.0016 13.6294C31.2791 13.616 30.379 13.616 29.3012 13.6294C28.4213 13.6137 27.5443 13.7356 26.702 13.9907C26.5096 14.0669 26.3248 14.161 26.1501 14.272C25.9756 14.3848 25.8139 14.5162 25.6677 14.6638C25.5201 14.81 25.3887 14.9718 25.2759 15.1463C25.165 15.321 25.0709 15.5059 24.9947 15.6983C24.7397 16.5408 24.6178 17.418 24.6335 18.2982C24.6181 19.3762 24.6103 20.2769 24.6103 21.0002C24.6103 21.7236 24.617 22.6239 24.6303 23.7012C24.6153 24.5826 24.7383 25.4609 24.9947 26.3043C25.0709 26.4967 25.165 26.6815 25.2759 26.8563C25.3887 27.0308 25.5201 27.1925 25.6677 27.3387C25.8139 27.4864 25.9756 27.6178 26.1501 27.7306C26.3248 27.8416 26.5095 27.9357 26.702 28.0119C27.5443 28.267 28.4213 28.3889 29.3012 28.3732C30.3783 28.3866 31.2784 28.3932 32.0016 28.3932C32.7248 28.3932 33.6249 28.3866 34.702 28.3732C35.5819 28.3889 36.4589 28.267 37.3012 28.0119C37.4936 27.9357 37.6784 27.8416 37.8531 27.7306C38.0276 27.6178 38.1893 27.4864 38.3354 27.3387C38.4831 27.1925 38.6144 27.0308 38.7272 26.8563C38.8381 26.6815 38.9323 26.4967 39.0084 26.3043C39.2635 25.4618 39.3854 24.5846 39.3697 23.7044C39.383 22.6271 39.3897 21.7268 39.3897 21.0034C39.3897 20.28 39.3827 19.3783 39.3686 18.2982C39.3843 17.418 39.2624 16.5408 39.0074 15.6983C38.9312 15.5059 38.8371 15.321 38.7262 15.1463C38.6134 14.9718 38.482 14.81 38.3344 14.6638C38.1882 14.5162 38.0265 14.3848 37.852 14.272C37.6774 14.161 37.4926 14.0669 37.3002 13.9907C36.4578 13.7356 35.5809 13.6137 34.7009 13.6294C33.6217 13.616 32.722 13.616 32.0016 13.6294ZM40.9958 21.0034C41.0091 22.2352 40.9891 23.4733 40.9358 24.7178C40.9149 25.4078 40.7932 26.091 40.5745 26.7457C40.3447 27.3977 39.9669 27.9876 39.4708 28.4691C38.9879 28.9647 38.3967 29.3415 37.7436 29.5699C37.089 29.7887 36.406 29.9104 35.7162 29.9312C34.4685 29.9881 33.2303 30.0081 32.0016 29.9913C30.7701 30.0081 29.5319 29.9895 28.287 29.9355C27.597 29.9133 26.9139 29.7901 26.2596 29.5699C25.6055 29.3423 25.0131 28.9658 24.5292 28.4701C24.0326 27.9875 23.6547 27.3961 23.4255 26.7425C23.2068 26.0878 23.0851 25.4046 23.0643 24.7146C23.0102 23.4716 22.9902 22.2335 23.0042 21.0002C22.9909 19.7684 23.0109 18.5303 23.0643 17.2858C23.0851 16.5959 23.2068 15.9127 23.4255 15.258C23.6547 14.6044 24.0326 14.013 24.5292 13.5303C25.0115 13.0337 25.6024 12.6558 26.2554 12.4264C26.91 12.2076 27.593 12.0859 28.2828 12.065C29.5277 12.0117 30.7655 11.9916 31.9963 12.005C33.2278 11.9916 34.4657 12.0117 35.7099 12.065C36.3997 12.0859 37.0827 12.2076 37.7372 12.4264C38.389 12.6559 38.9788 13.0335 39.4603 13.5293C39.9568 14.0117 40.3346 14.6027 40.564 15.2559C40.7827 15.9106 40.9044 16.5938 40.9252 17.2837C40.98 18.5317 41.0007 19.7702 40.9874 20.9992L40.9958 21.0034Z" fill="#0C2050"/>
</g>
</g>
<path d="M140.5 21C140.5 10.2304 149.23 1.5 160 1.5C170.77 1.5 179.5 10.2304 179.5 21C179.5 31.7696 170.77 40.5 160 40.5C149.23 40.5 140.5 31.7696 140.5 21Z" stroke="#7E828F" stroke-opacity="0.3"/>
<g clip-path="url(#clip2_2_1409)">
<g opacity="0.5">
<path opacity="0.5" d="M168.613 16.0482C168.8 16.9597 168.909 17.8862 168.938 18.8171C168.979 19.8479 169 20.4114 169 20.5076C169 20.6039 168.979 21.1671 168.938 22.1973C168.909 23.1285 168.801 24.0553 168.613 24.9671C168.502 25.3562 168.3 25.7121 168.026 26.0048C167.751 26.299 167.4 26.5076 167.014 26.6067C165.682 26.8251 164.336 26.9364 162.987 26.9397C161.204 26.9819 160.207 27.0029 159.996 27.0029C159.785 27.0029 158.788 26.9819 157.005 26.9397C155.657 26.9364 154.31 26.8251 152.979 26.6067C152.593 26.5076 152.242 26.299 151.966 26.0048C151.695 25.7112 151.497 25.3554 151.387 24.9671C151.2 24.0557 151.09 23.1292 151.061 22.1982C151.02 21.1674 151 20.6039 151 20.5076C151 20.4114 151.021 19.8479 151.062 18.8171C151.091 17.8861 151.2 16.9596 151.387 16.0482C151.497 15.6579 151.698 15.3014 151.975 15.0105C152.252 14.721 152.603 14.5157 152.987 14.4171C154.317 14.1847 155.664 14.0673 157.013 14.0661C158.797 14.024 159.794 14.0029 160.005 14.0029C160.216 14.0029 161.213 14.024 162.996 14.0661C164.345 14.0673 165.692 14.1847 167.022 14.4171C167.406 14.5157 167.757 14.721 168.035 15.0105C168.31 15.3017 168.511 15.6582 168.619 16.0482H168.613ZM158.157 23.2407L162.861 20.5048L158.157 17.7567V23.2407Z" fill="#0C2050"/>
</g>
</g>
<defs>
<clipPath id="clip0_2_1409">
<rect width="18" height="15" fill="white" transform="translate(87 13)"/>
</clipPath>
<clipPath id="clip1_2_1409">
<rect width="18" height="18" fill="white" transform="translate(23 12)"/>
</clipPath>
<clipPath id="clip2_2_1409">
<rect width="18" height="13" fill="white" transform="translate(151 14)"/>
</clipPath>
</defs>
</svg>
